<svg width="170" height="76" viewBox="0 0 170 76" fill="none" xmlns="http://www.w3.org/2000/svg">
<path d="M118.326 17.2558C117.893 15.8218 117.129 14.5533 116.034 13.466C114.938 12.3708 113.441 11.5041 111.535 10.8501C109.628 10.1962 107.193 9.86523 104.254 9.86523H90.7811H88.4805V10.0858C88.4805 10.0858 90.7811 11.6774 90.7811 15.9006V46.6288H97.2735V15.3175H104.144C105.783 15.3175 107.138 15.4672 108.21 15.7509C109.281 16.0424 110.14 16.46 110.77 17.0036C111.408 17.5473 111.85 18.2328 112.11 19.0522C112.362 19.8716 112.496 20.825 112.496 21.9202C112.496 23.0154 112.378 23.9214 112.141 24.7566C111.905 25.5918 111.479 26.3088 110.857 26.9155C110.235 27.5143 109.391 27.9791 108.32 28.3101C107.248 28.6331 105.877 28.7986 104.199 28.7986H101.749L99.4481 34.306H104.365C107.24 34.306 109.62 33.9672 111.511 33.2975C113.402 32.6278 114.899 31.7138 116.01 30.5714C117.121 29.4289 117.893 28.0895 118.326 26.5609C118.76 25.0324 118.98 23.4329 118.98 21.7626C118.98 20.2025 118.76 18.6976 118.326 17.2637V17.2558Z" fill="white"/>
<path d="M124.008 9.86592V10.0865C124.008 10.0865 126.308 11.6781 126.308 15.9013V46.6295H132.911V9.84229L126.308 9.86592H124.008Z" fill="white"/>
<path d="M165.521 15.5381L167.821 9.86523H140.646V10.0858C140.646 10.0858 142.947 11.6774 142.947 15.9006V46.6288H149.55V32.289H162.487L164.788 26.6161H149.55V15.5381H165.528H165.521Z" fill="white"/>
<path d="M132.899 54.2798H90.7305V54.8944H132.899V54.2798Z" fill="#C5994F"/>
<path d="M137.897 54.4218C137.897 55.4382 138.685 56.0685 139.662 56.0685H140.505C140.284 56.6516 139.654 56.9352 138.976 56.9352C138.086 56.9352 137.211 56.4861 137.211 55.5485V54.8079L136.219 55.0048V55.4303C136.219 56.9431 137.535 57.6049 138.921 57.6049C140.395 57.6049 141.632 56.9352 141.632 55.3436V52.6963H139.922C138.905 52.6963 137.905 53.2399 137.905 54.4218H137.897ZM140.631 55.2806C140.631 55.2806 140.631 55.3594 140.631 55.3909H139.875C139.323 55.3909 138.89 55.0285 138.89 54.3903C138.89 53.7127 139.362 53.366 139.898 53.366H140.631V55.2806Z" fill="#C5994F"/>
<path d="M139.406 51.9003C139.658 51.9003 139.871 51.6955 139.871 51.4433C139.871 51.1912 139.666 50.9863 139.406 50.9863C139.146 50.9863 138.949 51.1912 138.949 51.4433C138.949 51.6955 139.154 51.9003 139.406 51.9003Z" fill="#C5994F"/>
<path d="M140.648 51.9003C140.901 51.9003 141.105 51.6955 141.105 51.4433C141.105 51.1912 140.901 50.9863 140.648 50.9863C140.396 50.9863 140.191 51.1912 140.191 51.4433C140.191 51.6955 140.388 51.9003 140.648 51.9003Z" fill="#C5994F"/>
<path d="M142.492 54.4282C142.492 55.4445 143.28 56.067 144.257 56.067H145.218C145.148 56.7682 144.761 57.0361 143.997 57.0361H143.43V57.6586H144.155C145.471 57.6586 146.211 57.1622 146.211 55.6652V52.7026H144.501C143.493 52.7026 142.484 53.2463 142.484 54.436L142.492 54.4282ZM145.226 55.3973H144.462C143.918 55.3973 143.477 55.0427 143.477 54.4045C143.477 53.7269 143.95 53.3724 144.494 53.3724H145.218V55.4052L145.226 55.3973Z" fill="#C5994F"/>
<path d="M155.911 52.177C156.186 52.177 156.415 51.9563 156.415 51.6727C156.415 51.3891 156.186 51.1685 155.911 51.1685C155.635 51.1685 155.406 51.3969 155.406 51.6727C155.406 51.9485 155.627 52.177 155.911 52.177Z" fill="#C5994F"/>
<path d="M164.691 53.1221H162.445L162.24 53.5712V52.8306L161.256 53.0197V55.407H156.962H156.378V52.9488L155.394 53.1458V55.4149H150.075V54.3749C150.075 53.2167 149.437 52.7124 148.271 52.7124H147.365V53.3742H148.027C148.744 53.3742 149.09 53.6185 149.09 54.2488V55.4149H146.947V56.0846H155.394C155.725 56.0846 156 55.9586 156.174 55.7458L156.41 56.0846H156.969H166.605V54.8003C166.605 53.6106 165.707 53.1458 164.707 53.1458L164.691 53.1221ZM165.597 55.3992H162.24V53.784H164.604C165.211 53.784 165.597 54.1227 165.597 54.6506V55.3913V55.3992Z" fill="#C5994F"/>
<path d="M91.8789 61.7734C92.131 61.7734 92.3359 61.5686 92.3359 61.3164C92.3359 61.0643 92.131 60.8516 91.8789 60.8516C91.6267 60.8516 91.4219 61.0564 91.4219 61.3164C91.4219 61.5764 91.6267 61.7734 91.8789 61.7734Z" fill="#C5994F"/>
<path d="M93.1054 61.7734C93.3576 61.7734 93.5624 61.5686 93.5624 61.3164C93.5624 61.0643 93.3576 60.8516 93.1054 60.8516C92.8533 60.8516 92.6484 61.0564 92.6484 61.3164C92.6484 61.5764 92.8454 61.7734 93.1054 61.7734Z" fill="#C5994F"/>
<path d="M97.8442 62.4812H96.5835L96.1581 64.0492C95.9768 64.7661 95.7799 65.1601 95.118 65.1601H94.3774V62.2764L93.3925 62.4733V62.7018H92.2579C91.3282 62.7018 90.627 63.3164 90.627 64.2619C90.627 65.2074 91.3282 65.8219 92.2579 65.8219H93.2271L93.5501 65.3334C93.7313 65.6407 94.0622 65.8219 94.4798 65.8219H95.189C96.3157 65.8219 96.8987 65.2546 97.1666 64.1752L97.4108 63.1509H97.8678C98.3957 63.1509 98.8685 63.5134 98.8685 64.1673V65.1522H96.7569L97.2217 65.8219H99.8533V64.2225C99.8533 63.0406 98.8685 62.4733 97.8521 62.4733L97.8442 62.4812ZM92.4786 65.1601C91.9507 65.1601 91.604 64.8055 91.604 64.2698C91.604 63.734 91.9507 63.3794 92.4786 63.3794H93.3846V64.7504C93.3846 64.9001 93.4083 65.034 93.4477 65.1601H92.4786Z" fill="#C5994F"/>
<path d="M112.545 65.1629H109.574H108.511C109.007 64.8004 109.283 64.2961 109.283 63.8155C109.283 63.0985 108.66 62.4525 107.447 62.4525C106.793 62.4525 106.139 62.6337 105.619 62.8228L105.28 63.2955L105.336 63.3349L105.28 63.3507L105.43 63.6894C105.848 64.3986 106.1 64.8477 106.423 65.1629H104.311H101.751V60.2778L100.766 60.4748V64.8398C100.766 65.4307 101.16 65.8325 101.758 65.8325H104.311H106.234C106.691 65.8325 107.006 65.6907 107.337 65.5883C107.581 65.6829 107.841 65.8325 108.266 65.8325H109.567H113.522V60.2778L112.529 60.4669V65.1629H112.545ZM107.494 65.0368C107.053 64.761 106.651 64.1465 106.352 63.6343C106.32 63.587 106.218 63.4531 106.131 63.3428C106.478 63.2325 106.903 63.13 107.242 63.13C107.865 63.13 108.298 63.4767 108.298 64.0046C108.298 64.4065 108.046 64.8398 107.494 65.0368Z" fill="#C5994F"/>
<path d="M114.691 65.8325H115.684V60.2778L114.691 60.4669V65.8325Z" fill="#C5994F"/>
<path d="M122.031 62.9311C122.283 62.9311 122.488 62.7262 122.488 62.4741C122.488 62.222 122.291 62.0171 122.031 62.0171C121.771 62.0171 121.574 62.222 121.574 62.4741C121.574 62.7262 121.779 62.9311 122.031 62.9311Z" fill="#C5994F"/>
<path d="M120.789 62.9311C121.041 62.9311 121.246 62.7262 121.246 62.4741C121.246 62.222 121.041 62.0171 120.789 62.0171C120.537 62.0171 120.332 62.222 120.332 62.4741C120.332 62.7262 120.537 62.9311 120.789 62.9311Z" fill="#C5994F"/>
<path d="M123.39 65.1604H120.057C119.364 65.1604 119.159 64.9083 119.159 64.1913V63.4979L118.174 63.6949V63.9943C118.174 65.3022 118.796 65.8301 119.947 65.8301H124.383V62.7021L123.398 62.8991V65.1683L123.39 65.1604Z" fill="#C5994F"/>
<path d="M125.543 65.8325H126.528V60.2778L125.543 60.4669V65.8325Z" fill="#C5994F"/>
<path d="M127.703 66.0912C127.703 66.7215 127.411 66.9973 126.82 67.0918L127.041 67.7064C128.199 67.5567 128.688 66.9264 128.688 65.8706V62.6953L127.703 62.8923V66.0912Z" fill="#C5994F"/>
<path d="M142.465 61.9384C142.717 61.9384 142.922 61.7335 142.922 61.4814C142.922 61.2293 142.717 61.0244 142.465 61.0244C142.213 61.0244 142.008 61.2293 142.008 61.4814C142.008 61.7335 142.213 61.9384 142.465 61.9384Z" fill="#C5994F"/>
<path d="M143.049 60.891C143.301 60.891 143.506 60.6862 143.506 60.434C143.506 60.1819 143.301 59.9771 143.049 59.9771C142.797 59.9771 142.592 60.1819 142.592 60.434C142.592 60.6862 142.789 60.891 143.049 60.891Z" fill="#C5994F"/>
<path d="M143.24 61.4907C143.24 61.7349 143.437 61.9477 143.697 61.9477C143.957 61.9477 144.154 61.7428 144.154 61.4907C144.154 61.2386 143.949 61.0337 143.697 61.0337C143.445 61.0337 143.24 61.2386 143.24 61.4907Z" fill="#C5994F"/>
<path d="M147.82 61.9384C148.072 61.9384 148.285 61.7335 148.285 61.4814C148.285 61.2293 148.08 61.0244 147.82 61.0244C147.56 61.0244 147.363 61.2293 147.363 61.4814C147.363 61.7335 147.568 61.9384 147.82 61.9384Z" fill="#C5994F"/>
<path d="M149.061 61.9384C149.313 61.9384 149.518 61.7335 149.518 61.4814C149.518 61.2293 149.321 61.0244 149.061 61.0244C148.801 61.0244 148.604 61.2293 148.604 61.4814C148.604 61.7335 148.801 61.9384 149.061 61.9384Z" fill="#C5994F"/>
<path d="M158.426 65.1598H157.181C157.213 65.0652 157.228 64.9549 157.228 64.8368V62.9221L156.244 63.1191V65.1598H154.865V62.9379L153.872 63.127V65.1598H149.515V62.7015L148.53 62.8985V65.1677H144.141V62.7094L143.156 62.9064V65.1755H138.642V64.2458C138.642 63.064 137.657 62.4967 136.64 62.4967H135.38L134.954 64.0646C134.773 64.7816 134.576 65.1755 133.914 65.1755H133.749C133.749 65.1755 133.741 65.1913 133.725 65.1992C133.717 65.1992 133.725 65.1755 133.709 65.1755H130.708V60.2905L129.723 60.4875V64.8525C129.723 65.4434 130.117 65.8453 130.715 65.8453H133.709C133.709 65.8453 133.717 65.8295 133.725 65.8216C133.733 65.8216 133.733 65.8453 133.749 65.8453H133.969C135.104 65.8453 135.679 65.278 135.947 64.1986L136.191 63.1743H136.64C137.168 63.1743 137.641 63.5367 137.641 64.1907V65.1755H135.53L135.994 65.8453H143.133C143.464 65.8453 143.739 65.7192 143.913 65.5065L144.149 65.8453H148.506C148.837 65.8453 149.113 65.7192 149.286 65.5065L149.523 65.8453H156.228C156.567 65.8453 156.842 65.7113 157.024 65.4907L157.268 65.8453H159.411V62.7173L158.426 62.9143V65.1834V65.1598Z" fill="#C5994F"/>
<path d="M163.426 65.1629H162.071V61.1918L161.086 61.3888V65.1629H160.133V65.8325H164.411V60.2778L163.426 60.4669V65.1629Z" fill="#C5994F"/>
<path d="M165.566 60.4669V65.8325H166.559V60.2778L165.566 60.4669Z" fill="#C5994F"/>
<path d="M76 38C76 58.4383 59.4383 75 39 75C18.5618 75 2 58.4383 2 38C2 17.5618 18.5618 1 39 1C59.4383 1 76 17.5618 76 38ZM39 3.77342C20.0982 3.77342 4.77344 19.0982 4.77344 38C4.77344 56.9018 20.0982 72.2266 39 72.2266C57.9018 72.2266 73.2266 56.9018 73.2266 38C73.2266 19.0982 57.9018 3.77342 39 3.77342Z" fill="#C4984F"/>
<path d="M39.001 12.2114C24.7557 12.2114 13.2129 23.7542 13.2129 37.9996C13.2129 52.2449 24.7557 63.7877 39.001 63.7877C53.2463 63.7877 64.7891 52.2449 64.7891 37.9996C64.7891 23.7542 53.2463 12.2114 39.001 12.2114ZM39.001 62.6767C25.3702 62.6767 14.3238 51.6303 14.3238 37.9996C14.3238 24.3688 25.3702 13.3224 39.001 13.3224C52.6317 13.3224 63.6782 24.3688 63.6782 37.9996C63.6782 51.6303 52.6317 62.6767 39.001 62.6767Z" fill="#C4984F"/>
<path d="M70.7433 33.2639L66.8274 33.9967L66.6777 33.1064L70.5936 32.3657L70.7512 33.2639H70.7433Z" fill="#C4984F"/>
<path d="M70.5274 44.0346L66.5879 43.3649L66.7533 42.4746L70.685 43.1364L70.5353 44.0346H70.5274Z" fill="#C4984F"/>
<path d="M66.8887 41.7113L66.9833 40.8131L68.4251 40.9628L68.5118 40.1828C68.5827 39.5288 69.0475 39.0167 69.8591 39.1033C70.6155 39.1821 71.1355 39.7258 71.0331 40.7028C70.9228 41.7586 70.2136 42.0659 69.4021 41.9792L66.8887 41.7113ZM69.6621 41.0967C70.0797 41.144 70.3791 40.9785 70.4185 40.624C70.45 40.3167 70.253 40.0646 69.8039 40.0173C69.3863 39.97 69.1185 40.167 69.0791 40.4664L69.016 41.0258L69.6542 41.0967H69.6621Z" fill="#C4984F"/>
<path d="M69.6263 35.3198L69.6657 35.9817L71.0367 35.9029L71.0918 36.809L69.7209 36.8878L69.7603 37.526L71.0839 37.4472L71.1391 38.3454L69.2087 38.4557L69.0275 35.3514L66.979 35.4695L66.9238 34.5634L70.9106 34.335L70.9658 35.241L69.6342 35.3198H69.6263Z" fill="#C4984F"/>
<path d="M11.1004 34.4691L7.30273 33.894L7.43666 33.0036L9.89492 33.3739L9.99735 32.6885L10.6513 32.7909L10.6356 32.8933C10.604 33.0982 10.6434 33.2715 10.7616 33.4212C10.8719 33.563 11.0216 33.6733 11.2028 33.7364L11.0926 34.477L11.1004 34.4691Z" fill="#C4984F"/>
<path d="M8.59401 35.5331C8.70431 35.3598 8.85403 35.2179 9.05101 35.1155C9.24798 35.0131 9.46858 34.9658 9.72859 34.9816C10.0359 34.9973 10.288 35.0761 10.485 35.2258C10.682 35.3676 10.8159 35.5489 10.9026 35.7616C10.9893 35.9743 11.0208 36.1871 11.0129 36.4156C10.9814 36.9277 10.7923 37.2901 10.4377 37.495C10.0832 37.6998 9.57889 37.7865 8.94069 37.755C8.21581 37.7156 7.71157 37.558 7.42792 37.2823C7.14428 37.0065 7.01822 36.6441 7.04186 36.2028C7.05762 35.864 7.16006 35.5883 7.34915 35.3755C7.53825 35.1549 7.79036 35.021 8.1134 34.9658L8.18433 35.8167C7.88493 35.864 7.7352 36.0059 7.71944 36.2343C7.71157 36.4471 7.79036 36.5968 7.97158 36.6913C8.1528 36.7859 8.38919 36.8489 8.68071 36.8647V36.8489C8.58616 36.7465 8.51524 36.6283 8.46796 36.5022C8.42069 36.3762 8.40493 36.2343 8.4128 36.0846C8.42068 35.8955 8.4837 35.7143 8.59401 35.541V35.5331ZM9.24798 35.9743C9.1298 36.0689 9.07466 36.1871 9.06678 36.3368C9.0589 36.4786 9.10618 36.6125 9.21648 36.7228C9.32679 36.8332 9.4765 36.8962 9.66559 36.9041C9.86257 36.9119 10.0201 36.8725 10.1383 36.7701C10.2565 36.6756 10.3195 36.5495 10.3274 36.3998C10.3353 36.2501 10.288 36.124 10.1856 36.0216C10.0832 35.9192 9.93345 35.8561 9.72859 35.8483C9.53162 35.8404 9.36617 35.8798 9.25587 35.9743H9.24798Z" fill="#C4984F"/>
<path d="M10.8585 38.1646L11.0082 40.9459L10.173 40.9931L7.08446 39.5907L7.0293 38.5428L10.1179 39.9925L10.0233 38.2118L10.8585 38.1646Z" fill="#C4984F"/>
<path d="M11.3184 42.9319L7.52065 43.4992L7.38672 42.6088L9.84498 42.2385L9.74255 41.553L10.3965 41.4585L10.4122 41.5609C10.4438 41.7658 10.5305 41.9234 10.688 42.0258C10.8377 42.1282 11.0111 42.1912 11.2001 42.1991L11.3105 42.9398L11.3184 42.9319Z" fill="#C4984F"/>
<path d="M65.3599 20.5005C65.5647 20.3508 65.6199 20.075 65.4702 19.8623C65.3205 19.6574 65.0368 19.6022 64.832 19.752C64.6271 19.9017 64.572 20.1932 64.7217 20.398C64.8714 20.6029 65.155 20.6502 65.3599 20.5005Z" fill="#C4984F"/>
<path d="M66.4655 24.9517L65.6855 23.3207L65.2127 23.3759L65.7879 23.0213L65.2836 22.2098L63.6527 23.1868C63.4478 22.848 63.243 22.5171 63.0223 22.194L64.5982 21.0831L64.0308 20.2873L62.4708 21.3904C62.2502 21.0831 62.0296 20.7758 61.8011 20.4764L62.2817 20.0824C62.9987 19.4915 63.0539 18.8218 62.392 18.0103L61.9586 17.4902L61.4702 17.9236L61.7381 18.2387C62.1084 18.6878 62.0926 18.9715 61.7696 19.2394L61.2023 19.7121C60.8635 19.3024 60.5247 18.9006 60.1623 18.5145L59.6816 18.9557C60.4932 19.8382 61.2575 20.7837 61.9508 21.7607C62.1399 22.0286 62.3684 22.1862 62.6363 22.2098L62.5102 22.6037C63.5108 24.1244 64.3696 25.7475 65.063 27.4651L65.977 27.0002C66.891 26.5354 66.8279 25.6766 66.4576 24.9596L66.4655 24.9517ZM65.6697 26.0548L65.26 26.2596C64.9212 25.4953 64.543 24.7547 64.1412 24.0298L65.0236 23.4783L65.8431 25.1723C66.04 25.5584 65.9612 25.8972 65.6618 26.0469L65.6697 26.0548Z" fill="#C4984F"/>
<path d="M58.5412 14.1504L57.2963 15.805C56.5084 16.8529 55.3344 16.6165 54.4047 15.9153C53.5065 15.2377 52.9234 14.1504 53.6876 13.134L53.9949 12.7322L54.775 13.3231L54.4047 13.8195C53.9713 14.3947 54.3337 15.0407 54.838 15.4189C55.2004 15.6947 55.6574 15.8208 56.0435 15.6238L55.6023 15.2929C54.9641 14.8122 54.7907 14.0322 55.2635 13.4098C55.8386 12.6455 56.7526 12.7873 57.4145 13.2916L58.549 14.1504H58.5412ZM57.0047 13.8116C56.7132 13.591 56.3271 13.6067 56.0592 13.9692C55.8071 14.308 55.8702 14.6941 56.1774 14.9226L56.532 15.1904C56.532 15.1904 56.5714 15.1432 56.5793 15.1274L57.3672 14.0795L57.0047 13.8116ZM57.3987 12.551C57.2175 12.417 57.186 12.157 57.3199 11.9758C57.4617 11.7946 57.7139 11.7552 57.8951 11.8891C58.0763 12.0309 58.1157 12.2831 57.9738 12.4722C57.8399 12.6534 57.5799 12.6928 57.3908 12.551H57.3987ZM58.2418 13.1892C58.0605 13.0552 58.029 12.7952 58.163 12.614C58.3048 12.4328 58.5569 12.3934 58.7381 12.5273C58.9194 12.6691 58.9587 12.9213 58.8169 13.1104C58.683 13.2916 58.423 13.331 58.2418 13.1892Z" fill="#C4984F"/>
<path d="M61.3221 16.7584L59.7227 18.4209C58.8323 19.3427 58.0996 19.1457 57.3274 18.3972L56.9492 18.0348L57.3747 17.5936L57.6426 17.8536C58.0365 18.2396 58.3596 18.3184 58.7536 18.0033L58.2729 17.5463C57.6977 16.9869 57.619 16.2068 58.1626 15.6396C58.8245 14.9541 59.7069 15.2141 60.3057 15.7892L61.33 16.7741L61.3221 16.7584ZM59.2105 17.5384L60.1639 16.5456L59.8408 16.2305C59.5808 15.9784 59.1948 15.9468 58.8875 16.262C58.596 16.5693 58.6117 16.9553 58.8875 17.2232L59.2105 17.5305V17.5384Z" fill="#C4984F"/>
<path d="M25.5917 10.7619C25.7966 10.6595 25.8754 10.4073 25.7729 10.2103C25.6705 10.0055 25.4184 9.9267 25.2135 10.0291C25.0087 10.1316 24.9299 10.3837 25.0402 10.5885C25.1426 10.7855 25.3947 10.8722 25.5917 10.7619Z" fill="#C4984F"/>
<path d="M24.6625 11.2419C24.8673 11.1394 24.9461 10.8873 24.8437 10.6903C24.7412 10.4855 24.4891 10.4067 24.2843 10.5091C24.0873 10.6115 24.0006 10.8637 24.1109 11.0685C24.2134 11.2655 24.4576 11.3522 24.6625 11.2419Z" fill="#C4984F"/>
<path d="M38.3303 6.39714C38.3303 6.61776 38.5194 6.79898 38.7479 6.79898C38.9764 6.79898 39.1577 6.60989 39.1577 6.38139C39.1577 6.1529 38.9685 5.97168 38.7322 5.97168C38.5037 5.97168 38.3224 6.16077 38.3303 6.39714Z" fill="#C4984F"/>
<path d="M37.6912 6.81508C37.9197 6.81508 38.1009 6.62599 38.1009 6.39749C38.1009 6.169 37.9118 5.98779 37.6833 5.98779C37.4548 5.98779 37.2736 6.17689 37.2815 6.40538C37.2815 6.63387 37.4706 6.81509 37.6991 6.80721L37.6912 6.81508Z" fill="#C4984F"/>
<path d="M38.1932 5.91617C38.4217 5.91617 38.6029 5.72707 38.6029 5.49858C38.6029 5.27009 38.4138 5.08887 38.1775 5.08887C37.949 5.08887 37.7678 5.27797 37.7756 5.51434C37.7756 5.73496 37.9647 5.92405 38.1932 5.91617Z" fill="#C4984F"/>
<path d="M41.1234 6.87127C41.3519 6.88702 41.5488 6.71368 41.5646 6.48519C41.5803 6.2567 41.407 6.05972 41.1785 6.04396C40.95 6.0282 40.7609 6.20154 40.7451 6.43792C40.7294 6.66641 40.9028 6.85551 41.1312 6.87127H41.1234Z" fill="#C4984F"/>
<path d="M40.0745 6.80779C40.303 6.82355 40.5 6.6502 40.5157 6.42171C40.5315 6.19322 40.3581 5.99625 40.1296 5.98049C39.9012 5.96473 39.7121 6.13807 39.6963 6.36656C39.6805 6.59506 39.8539 6.78416 40.0824 6.79991L40.0745 6.80779Z" fill="#C4984F"/>
<path d="M28.4491 11.9367L27.48 9.54932L26.7157 9.8566L27.4484 11.6767C26.4557 12.11 25.3999 12.6694 24.8877 12.9688C24.4859 13.1973 24.2811 13.1343 24.0683 12.7325L23.7768 12.1888L22.918 12.6537L23.1071 13.0082C23.6114 13.9379 24.2496 13.9931 25.069 13.5755C26.1484 12.9609 27.2751 12.4094 28.4412 11.9367H28.4491Z" fill="#C4984F"/>
<path d="M44.3308 10.3922C44.6617 10.4552 44.9453 10.3922 45.1502 10.2031L45.3235 10.597C45.875 10.7231 46.4108 10.8649 46.9466 11.0225L47.6005 8.5327L46.655 8.28846L46.1744 10.14C45.9065 10.0691 45.6387 10.0061 45.3629 9.94305C45.4102 9.85638 45.4495 9.74607 45.4732 9.63577L45.7411 8.31209L44.7798 8.11512L44.441 9.75396C44.118 9.69093 43.7871 9.63577 43.464 9.58062L43.6925 7.96541L42.7234 7.82358L42.487 9.43879C42.1325 9.39939 41.6755 9.35213 41.3131 9.32061L41.4707 7.40599L40.5015 7.32721L40.3439 9.26545C39.9421 9.24969 39.5403 9.23394 39.1384 9.23394V7.31145H38.1772L38.1615 9.2497C37.799 9.25758 37.4445 9.28121 37.0899 9.30485L37.0111 8.65089C36.885 7.68964 36.042 7.34296 35.2068 7.45327L34.0643 7.62661L33.9698 8.90302C33.8989 9.41516 33.7649 9.73031 33.3552 9.79334L32.8825 9.89578L32.0158 6.45264L31.0703 6.68112L31.8661 9.81698C32 10.3843 32.457 10.6522 33.0164 10.534C33.1819 10.5025 33.3473 10.4631 33.5049 10.4316C34.0722 10.3213 34.474 10.0849 34.6868 9.68304L35.1438 10.1558C36.1523 10.014 37.1766 9.93517 38.2166 9.90365C38.5397 9.90365 38.7524 9.76184 38.9257 9.55698L39.2094 9.8879C39.5876 9.8879 39.9736 9.90366 40.3518 9.9273C40.6748 9.94306 40.9427 9.83274 41.1318 9.63577L41.3446 9.99032C42.3531 10.077 43.3538 10.2109 44.3308 10.4V10.3922ZM34.7419 9.5491C34.8207 9.36 34.9074 9.13151 34.9468 8.89513L35.0334 8.13087L35.2856 8.09935C35.6401 8.05208 35.9711 8.26481 36.0262 8.71392L36.1129 9.38364C35.6559 9.43092 35.1989 9.48607 34.7419 9.55698V9.5491Z" fill="#C4984F"/>
<path d="M52.2816 8.53906L51.3834 8.153L50.0203 11.4228C49.7367 11.3046 49.4451 11.1943 49.1615 11.084L50.0913 8.34997L49.1694 8.01904L48.2396 10.7531C48.0112 10.6743 47.7827 10.5955 47.5542 10.5246L47.3809 11.1549C48.5076 11.5095 49.6106 11.9271 50.6743 12.4156L52.2816 8.53906Z" fill="#C4984F"/>
<path d="M28.4296 7.46052L29.9188 11.3843L28.997 11.7152L27.5078 7.79144L28.4296 7.45264V7.46052Z" fill="#C4984F"/>
<path d="M31.4787 10.7861C31.7229 11.6213 31.4629 12.2595 30.5647 12.6849L30.1708 12.1728C30.5568 11.9601 30.738 11.7237 30.6041 11.2824L29.8398 8.69812L30.7775 8.42236L31.4787 10.7861Z" fill="#C4984F"/>
<path d="M53.9818 9.36792L52.1539 13.142L51.2793 12.7008L53.1072 8.93457L53.9818 9.3758V9.36792Z" fill="#C4984F"/>
<path d="M10.1352 24.7546C9.92248 24.66 9.67822 24.7546 9.58367 24.9594C9.48912 25.1643 9.58368 25.4085 9.78853 25.5031C9.99339 25.5976 10.2376 25.5031 10.3322 25.2982C10.4267 25.0855 10.3322 24.8412 10.1352 24.7467V24.7546Z" fill="#C4984F"/>
<path d="M10.5727 23.7941C10.36 23.6996 10.1157 23.7941 10.0212 23.999C9.92662 24.2038 10.0212 24.4481 10.226 24.5426C10.4309 24.6372 10.6751 24.5426 10.7697 24.3378C10.8642 24.125 10.7697 23.8808 10.5727 23.7862V23.7941Z" fill="#C4984F"/>
<path d="M16.2658 21.4617C16.1712 21.4065 15.7931 21.1859 15.1155 20.7526C14.3276 20.2483 13.4845 20.6659 13.0354 21.3829L12.476 22.2653L13.3663 23.266C13.7209 23.6442 13.91 23.9514 13.7209 24.3218L13.7051 24.3533L13.65 24.4557L13.4845 24.7709L11.5069 23.7466L11.0578 24.6133L11.3965 24.7866L11.0499 25.4642C10.7189 26.1261 10.8923 26.8667 11.562 27.2055C12.2317 27.5443 12.9645 27.2528 13.3033 26.5909L13.3427 26.5121C13.39 26.4097 13.4372 26.2994 13.4845 26.197L13.5869 25.9685L13.3821 25.5667C13.6421 25.5194 13.8548 25.3539 14.0203 25.1018C14.0912 24.9678 14.3118 24.5581 14.3118 24.5581C14.5876 24.046 14.6349 23.6757 14.4852 23.2345L15.1549 23.1242C15.5094 22.549 15.8876 21.9896 16.2816 21.4538L16.2658 21.4617ZM12.8305 26.1103C12.6808 26.4255 12.3736 26.5358 12.0584 26.3861C11.7275 26.2364 11.6172 25.9291 11.7669 25.606L12.0032 25.1018L12.736 25.4879C12.8463 25.543 12.9566 25.5824 13.0591 25.606L12.8227 26.1103H12.8305ZM14.4615 23.0454L14.4142 23.1163C14.3276 22.9272 14.1306 22.6672 13.9967 22.5253C13.8627 22.3835 13.4609 21.9344 13.4609 21.9344L13.5948 21.7217C13.7839 21.4223 14.1621 21.2962 14.5403 21.5405L15.1706 21.9344C14.9264 22.2968 14.69 22.6672 14.4536 23.0454H14.4615Z" fill="#C4984F"/>
<path d="M18.1551 19.1285C18.4309 18.8213 18.5491 18.5376 18.6673 18.2618C18.8958 18.1909 19.1557 18.0964 19.4157 17.8206C20.0303 17.1745 20.7316 16.5994 21.4249 16.04L18.817 12.7544L18.0606 13.3768L20.2904 16.1897C19.8885 16.5363 19.4946 16.8988 19.1085 17.2612C19.1637 16.7963 19.0218 16.363 18.7697 16.1187C18.3679 15.7327 17.6666 15.7405 16.9812 16.4654C16.6187 16.8436 16.3587 17.3085 16.1696 17.7103C16.1696 17.7103 16.272 18.1752 16.2799 18.2146C16.2957 18.2776 16.4139 18.3249 16.5005 18.3485C16.5951 18.3721 17.4933 18.5376 17.8242 18.5691C17.3987 19.034 16.989 19.5067 16.5951 19.9952H16.5872L13.798 17.7576L13.1992 18.5297L15.6969 20.5468C16.1538 20.9092 16.7054 20.8541 17.0599 20.3971C17.4066 19.9637 17.769 19.5383 18.1472 19.1285H18.1551ZM16.926 17.6394C17.0363 17.4345 17.1702 17.206 17.3121 17.0563C17.6036 16.7491 17.966 16.686 18.2339 16.946C18.423 17.1273 18.5097 17.4188 18.3994 17.7576C18.0212 17.797 17.0521 17.6552 16.926 17.6394Z" fill="#C4984F"/>
<path d="M20.282 11.6689L22.7088 15.0884L21.9209 15.6715L19.4941 12.252L20.282 11.6768V11.6689Z" fill="#C4984F"/>
<path d="M13.5796 50.7895C13.4615 51.0889 13.2093 51.3175 12.8311 51.4908C12.4529 51.6641 12.1141 51.6956 11.8147 51.5853C11.5153 51.4829 11.279 51.2465 11.1135 50.892L10.7668 50.1356L9.60073 50.6635L9.23828 49.8598L12.8075 48.2446L13.5166 49.8126C13.6821 50.175 13.6978 50.498 13.5796 50.7974V50.7895ZM11.7754 50.4192C11.8463 50.5689 11.9408 50.6635 12.059 50.7107C12.1772 50.7501 12.3111 50.7423 12.4608 50.6714C12.6105 50.6005 12.7051 50.5138 12.7524 50.3956C12.7996 50.2774 12.7917 50.1435 12.7208 49.9938L12.4451 49.3792L11.4996 49.8126L11.7754 50.4271V50.4192Z" fill="#C4984F"/>
<path d="M12.911 55.5184C12.651 55.5184 12.4067 55.4553 12.1861 55.3214C11.9655 55.1796 11.7764 54.9826 11.6267 54.7226C11.3825 54.3286 11.3037 53.9426 11.3746 53.5644C11.4455 53.1862 11.6976 52.871 12.1231 52.611L14.2347 51.3188L14.6995 52.0752L12.6746 53.3122C12.2176 53.588 12.1073 53.9189 12.3358 54.2892C12.5643 54.6674 12.911 54.7147 13.3601 54.4389L15.385 53.2019L15.8499 53.9583L13.7383 55.2505C13.4547 55.4238 13.1789 55.5184 12.911 55.5263V55.5184Z" fill="#C4984F"/>
<path d="M17.6416 56.7068C17.618 56.9747 17.4762 57.211 17.232 57.408C17.0901 57.5262 16.9404 57.5892 16.7986 57.6129C16.6489 57.6365 16.5071 57.6129 16.3652 57.5577L16.3495 57.5735C16.3889 57.7547 16.381 57.9281 16.3258 58.0935C16.2707 58.2669 16.1525 58.4166 15.9792 58.5584C15.6955 58.7869 15.404 58.8972 15.1282 58.8656C14.8446 58.842 14.5925 58.6923 14.3719 58.4165L13.127 56.8722L16.1761 54.4219L17.3738 55.911C17.5865 56.171 17.6732 56.4389 17.6495 56.7068H17.6416ZM14.8367 57.7626C14.9234 57.8729 15.0179 57.928 15.1282 57.9359C15.2306 57.9438 15.341 57.9044 15.4434 57.8256C15.5537 57.7389 15.6088 57.6444 15.6246 57.5341C15.6404 57.4238 15.601 57.3213 15.5143 57.211L14.9628 56.5177L14.2852 57.0614L14.8367 57.7547V57.7626ZM16.0107 56.7462C16.0895 56.8486 16.184 56.9038 16.2786 56.9117C16.3731 56.9195 16.4756 56.888 16.578 56.8013C16.6804 56.7225 16.7356 56.628 16.7435 56.5335C16.7592 56.431 16.7198 56.3365 16.641 56.234L16.121 55.588L15.4828 56.1001L16.0028 56.7462H16.0107Z" fill="#C4984F"/>
<path d="M15.7129 59.9763L18.4469 57.1792L19.0772 57.8016L16.942 59.9841L18.2105 61.229L17.6117 61.8436L15.7129 59.9841V59.9763Z" fill="#C4984F"/>
<path d="M18.1094 62.2373L20.6228 59.2354L21.3004 59.8026L18.787 62.8046L18.1094 62.2373Z" fill="#C4984F"/>
<path d="M22.3941 64.6412C22.1499 64.7436 21.8899 64.783 21.6141 64.7594C21.3462 64.7357 21.0862 64.6333 20.8341 64.46C20.5505 64.263 20.3456 64.0187 20.2116 63.7351C20.0777 63.4514 20.0383 63.1363 20.0856 62.7896C20.1329 62.4508 20.2747 62.1041 20.5189 61.7496C20.7632 61.4029 21.0311 61.1429 21.3383 60.9774C21.6456 60.812 21.9529 60.741 22.2681 60.7647C22.5833 60.7883 22.8826 60.8986 23.1663 61.0956C23.4105 61.269 23.5918 61.4738 23.7178 61.7102C23.836 61.9466 23.899 62.1987 23.899 62.4508C23.899 62.7029 23.8439 62.9472 23.7415 63.1678L22.9378 62.7739C23.0166 62.5926 23.0402 62.4035 23.0008 62.2223C22.9615 62.0411 22.859 61.8914 22.6936 61.7732C22.5675 61.6865 22.4178 61.6393 22.2602 61.6314C22.0948 61.6314 21.9293 61.6787 21.7559 61.7811C21.5826 61.8835 21.4172 62.049 21.2674 62.2696C21.1099 62.4902 21.0153 62.7029 20.9838 62.8999C20.9444 63.0969 20.9602 63.2702 21.0232 63.4278C21.0862 63.5775 21.1808 63.6957 21.3068 63.7824C21.4802 63.9006 21.6535 63.94 21.8426 63.9006C22.0317 63.8612 22.205 63.7587 22.3705 63.5854L23.056 64.1684C22.859 64.3733 22.6384 64.5309 22.3941 64.6412Z" fill="#C4984F"/>
<path d="M24.0449 66.297L25.8334 62.8145L26.6213 63.2163L24.8328 66.6988L24.0449 66.297Z" fill="#C4984F"/>
<path d="M28.6183 68.3193L27.6964 67.9489L27.4207 65.0967H27.4049L26.4594 67.4604L25.7109 67.161L27.1607 63.5288L28.0983 63.907L28.3741 66.7041H28.3898L29.3116 64.3955L30.0601 64.6949L28.6104 68.3271L28.6183 68.3193Z" fill="#C4984F"/>
<path d="M33.7745 65.6586L31.6472 69.1569L30.6071 68.889L30.4102 64.7998L31.332 65.0362L31.3872 67.9987H31.4029L32.8605 65.4301L33.7745 65.6586Z" fill="#C4984F"/>
<path d="M34.8478 67.3292L36.4945 67.534L36.4 68.2983L34.7533 68.0855L34.6508 68.8813L36.3842 69.1019L36.2818 69.9213L33.6738 69.5904L34.1702 65.7061L36.7782 66.037L36.6757 66.8249L34.9423 66.6043L34.8478 67.3292Z" fill="#C4984F"/>
<path d="M38.9655 66.8957C38.8631 66.8011 38.7213 66.7539 38.5479 66.7539C38.3903 66.7539 38.2721 66.7854 38.1776 66.8563C38.083 66.9272 38.0358 67.0139 38.0358 67.1242C38.0358 67.2187 38.0673 67.2896 38.1382 67.3448C38.2091 67.3999 38.3116 67.4393 38.4534 67.4787L38.9891 67.6442C39.2255 67.7151 39.4225 67.7939 39.5643 67.8648C39.7061 67.9357 39.8322 68.0618 39.9346 68.2272C40.0371 68.3927 40.0843 68.6212 40.0765 68.9048C40.0765 69.3067 39.9268 69.614 39.6431 69.8109C39.3595 70.0079 39.0128 70.1024 38.5794 70.0946C38.1461 70.0946 37.7915 69.9685 37.5079 69.74C37.2242 69.5115 37.0667 69.1885 37.0352 68.7709L37.9097 68.6842C37.9255 68.897 37.9964 69.0624 38.1225 69.1727C38.2485 69.283 38.4061 69.3382 38.6031 69.3382C38.7685 69.3382 38.9025 69.3067 39.0049 69.2358C39.1073 69.1648 39.1625 69.0703 39.1625 68.9363C39.1625 68.8182 39.131 68.7236 39.0522 68.6685C38.9734 68.6133 38.8473 68.5503 38.6582 68.4951L38.1697 68.3376C37.957 68.2666 37.7758 68.1957 37.634 68.1248C37.4921 68.0539 37.3818 67.9357 37.2873 67.786C37.1927 67.6363 37.1533 67.4315 37.1533 67.1793C37.1533 66.7933 37.2951 66.5017 37.5552 66.2969C37.823 66.092 38.1618 65.9975 38.5794 66.0053C38.9655 66.0053 39.2807 66.1235 39.5328 66.3363C39.7849 66.549 39.9346 66.8484 39.9819 67.2424L39.131 67.2975C39.1152 67.1321 39.0522 66.9981 38.9498 66.9036L38.9655 66.8957Z" fill="#C4984F"/>
<path d="M43.3154 66.6733L42.236 66.7757L42.5275 69.817L41.645 69.9037L41.3535 66.8624L40.2741 66.9648L40.1953 66.106L43.2287 65.8145L43.3075 66.6733H43.3154Z" fill="#C4984F"/>
<path d="M47.2002 64.9409L48.0905 68.7544L47.2868 68.9435L46.6644 66.2725H46.6486L46.5935 69.1011L45.9868 69.2429L44.6868 66.7295H44.671L45.2935 69.4004L44.5056 69.5817L43.6152 65.7682L44.8837 65.4767L45.9396 67.6592H45.9553L45.9396 65.2324L47.2002 64.9409Z" fill="#C4984F"/>
<path d="M49.1503 65.839L50.7024 65.2481L50.9782 65.9651L49.426 66.556L49.7097 67.3045L51.3406 66.6821L51.6322 67.4542L49.1739 68.3918L47.7793 64.7359L50.2376 63.7983L50.5212 64.539L48.8903 65.1614L49.1503 65.839Z" fill="#C4984F"/>
<path d="M55.3767 65.5556L54.5021 66.0205L52.1463 64.3816H52.1305L53.3282 66.6429L52.619 67.0211L50.7832 63.5622L51.6735 63.0894L53.99 64.6889H54.0058L52.8397 62.4749L53.5488 62.0967L55.3846 65.5556H55.3767Z" fill="#C4984F"/>
<path d="M56.8866 60.835L56.0041 61.4574L57.7611 63.9551L57.0363 64.4672L55.2792 61.9695L54.3968 62.592L53.9004 61.8908L56.3981 60.1416L56.8944 60.8428L56.8866 60.835Z" fill="#C4984F"/>
<path d="M58.7054 59.142L59.2963 59.7566L60.4939 58.6062L61.0218 59.1577L59.8242 60.3081L60.8642 61.3954L60.226 62.01L57.5156 59.1814L59.4145 57.3613L59.966 57.9365L58.7054 59.142Z" fill="#C4984F"/>
<path d="M64.1426 56.9043C64.2371 57.1486 64.2529 57.4007 64.1898 57.6529C64.1268 57.905 64.0008 58.1492 63.8117 58.3777C63.5201 58.7323 63.1813 58.9371 62.8031 58.9923C62.4249 59.0474 62.0389 58.9135 61.6528 58.5983L59.7461 57.0304L60.3055 56.3449L62.1413 57.8498C62.551 58.1886 62.8977 58.1886 63.1735 57.8498C63.4571 57.511 63.3862 57.1722 62.9765 56.8334L61.1407 55.3285L61.7001 54.6431L63.6068 56.211C63.8668 56.4237 64.0401 56.6522 64.1347 56.9043H64.1426Z" fill="#C4984F"/>
<path d="M67.0069 53.5947L66.479 54.4378L63.6189 54.2014V54.2172L65.7699 55.5645L65.3444 56.2499L62.0273 54.1778L62.5631 53.319L65.3681 53.5396V53.5238L63.2644 52.2001L63.6898 51.5146L67.0069 53.5868V53.5947Z" fill="#C4984F"/>
<path d="M65.5622 48.654C65.9877 48.5043 66.4999 48.5595 67.0987 48.8353C67.6975 49.1032 68.0836 49.4498 68.249 49.8674C68.4145 50.285 68.3908 50.742 68.1702 51.2305L67.5399 52.633L63.9707 51.0256L64.601 49.6232C64.8216 49.1347 65.1447 48.8116 65.5701 48.6619L65.5622 48.654ZM67.3823 51.0256C67.5162 50.7262 67.5399 50.4662 67.4453 50.2456C67.3587 50.025 67.1144 49.828 66.7284 49.6468C66.3423 49.4735 66.0271 49.4183 65.8065 49.4971C65.578 49.5759 65.3968 49.765 65.2628 50.0644L65.0501 50.5293L67.1696 51.4826L67.3823 51.0178V51.0256Z" fill="#C4984F"/>
<path fill-rule="evenodd" clip-rule="evenodd" d="M60.8894 38.262V38.2148C52.8528 37.0959 45.5332 39.8694 38.9936 45.755C32.4539 39.8694 25.1343 37.0959 17.0977 38.2148V38.262C25.481 38.6245 32.5012 42.9579 38.119 48.229C39.2221 49.2612 40.9475 51.0024 41.7827 52.0188L41.3573 52.3813C40.9791 52.6965 40.9318 53.2637 41.2548 53.6419C41.57 54.0201 42.1373 54.0674 42.5155 53.7444L42.941 53.3819C43.2167 53.7207 43.4689 54.0359 43.5792 54.1777C43.5792 54.1777 44.4695 55.5093 45.3756 56.7857C47.5975 59.8979 50.4576 58.6924 50.7255 57.1481C51.0012 55.5329 49.5278 54.8553 48.3302 55.0365C48.3302 55.0365 48.0938 55.0365 47.8259 54.9577C46.9671 54.6032 45.6041 53.051 44.6822 51.9164L45.5174 51.2073C45.8956 50.8921 45.9429 50.3248 45.6198 49.9466C45.3047 49.5685 44.7374 49.5212 44.3592 49.8442L43.5634 50.5218C42.6415 49.4188 41.7039 48.3866 40.7427 47.4254C45.5883 43.0919 52.5061 38.6402 60.8894 38.2778V38.262Z" fill="white"/>
<path d="M43.3918 22.2353L48.3792 22.7159C47.8907 20.8171 45.724 20.0607 43.5336 20.3365C44.1955 19.6746 45.9288 19.194 47.4889 19.3043C46.0155 17.6497 44.1561 17.5867 41.9106 18.5952L43.8803 16.6018C42.273 15.9557 40.6814 16.846 39.9092 17.957C39.9092 17.4527 39.4523 15.3175 38.9953 14.9551C38.5383 15.3175 38.0813 17.4527 38.0813 17.957C37.3092 16.8382 35.7176 15.9478 34.1103 16.6018L36.08 18.5952C33.8345 17.5867 31.9829 17.6576 30.5017 19.3043C32.0617 19.194 33.7951 19.6746 34.457 20.3365C32.2666 20.0607 30.0998 20.825 29.6113 22.7159L34.5988 22.2353C32.7472 22.7947 31.2108 23.3147 30.675 26.5058L35.7806 23.882C34.2363 24.9615 33.5509 28.2076 34.6854 29.5234C35.0715 28.6725 36.9704 25.4027 37.7425 24.7487C38.3413 29.4683 37.9237 37.1425 37.5928 38.7183L37.1595 39.3013C36.1982 39.325 34.4412 39.388 33.4563 39.5692C34.0709 39.9159 34.6855 40.2941 35.2685 40.6723C37.2225 40.4438 39.7753 40.4044 40.9335 40.885C39.5389 40.8692 37.9316 41.1608 36.5055 41.5075C37.3092 42.0748 37.9553 42.5711 38.2941 42.8469C38.491 43.0045 38.7432 43.0754 38.9795 43.0754C39.2159 43.0754 39.468 43.0045 39.665 42.8469C40.3741 42.2717 42.4621 40.6881 44.5027 39.5771C43.5179 39.388 41.7608 39.3171 40.7996 39.3013L40.3662 38.7183C40.0353 37.1425 39.6177 29.4762 40.2165 24.7487C40.9887 25.4106 42.8875 28.6725 43.2736 29.5234C44.4082 28.2076 43.7227 24.9615 42.1784 23.882L47.2841 26.5058C46.7483 23.3147 45.2118 22.7947 43.3603 22.2353H43.3918Z" fill="white"/>
<path fill-rule="evenodd" clip-rule="evenodd" d="M36.205 52.0177C36.6541 51.4662 37.3789 50.6941 38.1196 49.9377C37.8123 49.6383 37.5208 49.3546 37.2687 49.1183C36.9771 48.8425 36.6777 48.5667 36.3704 48.2988C35.7086 49.0001 35.0547 49.7407 34.4165 50.505L33.6207 49.8274C33.2425 49.5122 32.683 49.5595 32.36 49.9298C32.0448 50.308 32.0921 50.8674 32.4624 51.1904L33.2976 51.8996C32.3679 53.042 31.0048 54.5863 30.1539 54.9409C29.886 55.0276 29.6575 55.0197 29.6496 55.0197C28.452 54.8384 26.9786 55.5161 27.2544 57.1313C27.5223 58.6834 30.3823 59.881 32.6042 56.7688C33.5103 55.4924 34.4007 54.1608 34.4007 54.1608C34.511 54.019 34.7631 53.7039 35.0389 53.3651L35.4643 53.7275C35.8425 54.0427 36.402 53.9954 36.725 53.6251C37.0402 53.2469 36.9929 52.6875 36.6226 52.3644L36.1971 52.002L36.205 52.0177Z" fill="white"/>
</svg>
